<?xml version="1.0" standalone="no"?>
<!DOCTYPE svg PUBLIC "-//W3C//DTD SVG 20010904//EN"
 "http://www.w3.org/TR/2001/REC-SVG-20010904/DTD/svg10.dtd">
<svg version="1.0" xmlns="http://www.w3.org/2000/svg"
 width="1200.000000pt" height="1200.000000pt" viewBox="0 0 1200.000000 1200.000000"
 preserveAspectRatio="xMidYMid meet">
<metadata>
Created by potrace 1.14, written by Peter Selinger 2001-2017
</metadata>
<g transform="translate(0.000000,1200.000000) scale(0.100000,-0.100000)"
fill="#000000" stroke="none">
<path d="M5992 9771 c-47 -27 -57 -35 -77 -66 -19 -29 -20 -50 -20 -647 0
-340 -2 -618 -5 -618 -3 0 -31 26 -61 58 -167 177 -321 401 -453 660 -54 104
-102 161 -137 163 -94 5 -128 -19 -153 -105 -28 -95 -29 -589 -2 -726 2 -14 7
-52 11 -85 3 -33 8 -69 10 -80 3 -11 7 -38 11 -60 3 -22 7 -49 9 -60 2 -11 11
-49 20 -83 9 -35 14 -66 11 -69 -21 -21 -515 187 -577 243 -8 7 -19 14 -23 14
-6 0 -169 106 -199 130 -97 76 -251 215 -340 305 -115 117 -129 125 -180 106
-33 -13 -35 -19 -54 -176 -18 -149 11 -314 87 -504 41 -104 107 -242 145 -306
13 -22 31 -53 40 -69 10 -16 30 -47 46 -69 27 -38 28 -42 12 -51 -10 -6 -22
-11 -28 -12 -66 -13 -555 -256 -555 -276 0 -4 -5 -8 -11 -8 -19 0 -191 -122
-324 -230 -71 -58 -189 -163 -260 -235 -130 -129 -153 -154 -230 -250 -21 -28
-42 -52 -46 -55 -13 -11 -179 -261 -226 -340 -95 -163 -195 -374 -267 -560
-33 -88 -76 -215 -81 -242 -3 -12 -13 -50 -24 -83 -10 -33 -31 -114 -45 -180
-37 -173 -40 -196 -62 -435 -2 -25 -4 -108 -4 -185 -2 -603 195 -1114 581
-1505 155 -157 237 -223 444 -356 194 -124 535 -265 800 -330 55 -13 118 -29
139 -35 22 -6 49 -13 60 -15 47 -9 83 -16 116 -20 19 -2 62 -9 95 -15 87 -14
113 -18 175 -24 170 -15 275 -22 465 -30 72 -3 166 -8 210 -10 137 -8 823 -27
1000 -27 101 0 594 11 785 18 189 6 496 20 640 29 191 11 303 21 350 30 14 3
42 7 65 11 22 3 49 7 60 9 27 4 115 16 140 19 12 1 25 5 30 8 9 5 120 31 181
42 12 3 59 16 105 31 46 15 91 28 99 30 8 2 29 9 45 15 17 6 37 13 45 15 92
19 439 186 571 276 32 21 61 39 65 39 7 0 17 8 159 124 177 145 330 317 447
502 56 90 132 236 158 306 46 121 82 236 94 298 3 14 12 59 21 100 9 41 19 98
21 125 3 28 8 77 12 110 13 120 5 491 -12 581 -2 11 -7 47 -10 80 -4 32 -11
75 -16 95 -9 31 -19 80 -36 169 -19 98 -154 503 -175 525 -5 5 -9 15 -9 22 0
15 -52 128 -117 258 -37 74 -103 188 -196 339 -32 53 -158 221 -225 301 -105
125 -265 281 -407 396 -66 54 -128 105 -138 114 -9 8 -71 51 -137 95 -197 131
-396 234 -615 320 -33 13 -64 27 -69 32 -5 4 2 22 16 40 33 45 119 190 150
258 89 190 111 246 149 389 24 93 27 120 24 221 -4 121 -12 190 -26 228 -9 22
-45 42 -78 42 -9 0 -84 -66 -166 -147 -171 -169 -208 -201 -343 -299 -112 -80
-344 -213 -437 -250 -16 -6 -59 -24 -95 -39 -36 -15 -105 -40 -153 -55 -75
-24 -87 -26 -83 -12 25 85 41 161 51 232 4 30 9 63 11 74 2 10 6 44 10 75 3
31 8 59 11 63 16 28 22 414 9 598 -11 165 -50 226 -142 223 -60 -2 -93 -30
-139 -120 -117 -227 -262 -456 -365 -578 -38 -45 -164 -180 -171 -183 -3 -1
-6 273 -6 610 0 686 3 654 -71 703 -48 31 -94 37 -130 16z"/>
<path d="M1523 6100 c-84 -19 -139 -98 -130 -187 9 -91 74 -154 162 -159 77
-4 143 39 171 113 51 132 -64 264 -203 233z"/>
<path d="M10376 6095 c-108 -37 -152 -157 -93 -257 85 -145 316 -88 322 80 2
56 -8 88 -38 123 -47 55 -125 76 -191 54z"/>
<path d="M1241 5431 c-26 -26 -18 -47 25 -61 43 -15 64 -44 64 -92 0 -48 -32
-86 -115 -135 -79 -48 -94 -61 -111 -102 -26 -63 3 -124 103 -216 98 -90 94
-143 -15 -193 -171 -77 -236 -157 -198 -244 19 -46 59 -80 149 -128 85 -46
112 -76 102 -112 -4 -13 -28 -61 -55 -108 -69 -123 -78 -177 -38 -255 26 -53
70 -98 141 -146 47 -31 63 -37 78 -29 32 18 23 47 -23 76 -83 51 -144 123
-148 174 -4 51 1 68 42 131 110 170 96 247 -61 329 -91 47 -118 70 -127 107
-6 23 -1 32 31 60 21 18 72 49 112 68 123 59 167 123 143 211 -10 35 -28 59
-81 107 -37 34 -75 79 -83 99 -14 34 -14 38 5 62 11 14 25 26 30 26 15 0 113
67 140 96 39 42 51 70 51 120 0 71 -52 150 -103 157 -8 2 -19 6 -26 10 -7 5
-21 -1 -32 -12z"/>
<path d="M10705 5436 c-76 -27 -114 -86 -109 -168 4 -77 39 -118 177 -206 39
-25 57 -43 57 -57 0 -31 -33 -78 -85 -121 -108 -90 -125 -196 -43 -270 23 -22
116 -74 130 -74 13 0 106 -70 111 -83 14 -43 -36 -95 -138 -142 -61 -29 -87
-50 -109 -92 -30 -59 -18 -107 52 -221 47 -77 58 -123 40 -174 -12 -35 -94
-117 -142 -143 -38 -21 -49 -36 -40 -60 20 -50 160 38 230 144 24 37 29 55 29
105 0 56 -5 70 -58 162 -31 55 -57 112 -57 125 0 35 30 64 103 100 88 44 127
76 146 120 10 22 21 36 24 32 4 -3 7 -1 7 5 0 7 -4 12 -10 12 -5 0 -10 10 -10
22 0 37 -42 87 -107 128 -34 22 -66 40 -70 40 -24 0 -95 49 -107 74 -13 26
-13 34 1 60 14 29 50 68 90 98 32 24 54 55 72 104 18 48 18 50 0 89 -15 31
-37 52 -97 89 -87 55 -118 88 -125 133 -7 42 18 90 51 98 35 9 52 23 52 44 0
27 -31 40 -65 27z"/>
<path d="M1653 3165 c-46 -28 -85 -94 -86 -148 -1 -46 39 -123 76 -146 42 -25
105 -42 113 -30 3 5 10 7 15 3 6 -3 24 1 42 9 77 37 112 98 102 180 -14 128
-152 197 -262 132z"/>
<path d="M10159 3161 c-148 -94 -84 -316 91 -316 94 0 148 41 172 128 40 151
-130 273 -263 188z"/>
</g>
</svg>
